RBDS024runT25_grf
version=1
nRows=34
nColumns=19
inDegrees=no
endheader
time	ground_force_r_vx	ground_force_r_vy	ground_force_r_vz	ground_force_r_px	ground_force_r_py	ground_force_r_pz	ground_force_r_mx	ground_force_r_my	ground_force_r_mz	ground_force_l_vx	ground_force_l_vy	ground_force_l_vz	ground_force_l_px	ground_force_l_py	ground_force_l_pz	ground_force_l_mx	ground_force_l_my	ground_force_l_mz
     22.49800000	   -183.50845338	   1650.17268043	    -29.65110755	      2.13208283	      0.00000000	      1.06751370	     -0.00000000	      7.65512664	      0.00000000	      0.00000000	      0.00000000	      0.00000000	      0.00000000	      0.00000000	      0.00000000	      0.00000000	      0.00000000	      0.00000000
     22.49900000	   -181.98186332	   1660.79560120	    -29.67085806	      2.13009743	      0.00000000	      1.06752518	     -0.00000000	      7.70776962	      0.00000000	      0.00000000	      0.00000000	      0.00000000	      0.00000000	      0.00000000	      0.00000000	      0.00000000	      0.00000000	      0.00000000
     22.50000000	   -180.45527325	   1671.41852198	    -29.69060858	      2.12811203	      0.00000000	      1.06753666	     -0.00000000	      7.76041261	      0.00000000	      0.00000000	      0.00000000	      0.00000000	      0.00000000	      0.00000000	      0.00000000	      0.00000000	      0.00000000	      0.00000000
     22.50100000	   -178.49797267	   1681.54252191	    -29.75350242	      2.12610492	      0.00000000	      1.06755916	     -0.00000000	      7.80450966	      0.00000000	      0.00000000	      0.00000000	      0.00000000	      0.00000000	      0.00000000	      0.00000000	      0.00000000	      0.00000000	      0.00000000
     22.50200000	   -176.54067209	   1691.66652185	    -29.81639627	      2.12409780	      0.00000000	      1.06758167	     -0.00000000	      7.84860671	      0.00000000	      0.00000000	      0.00000000	      0.00000000	      0.00000000	      0.00000000	      0.00000000	      0.00000000	      0.00000000	      0.00000000
     22.50300000	   -174.58337152	   1701.79052178	    -29.87929011	      2.12209069	      0.00000000	      1.06760418	     -0.00000000	      7.89270377	      0.00000000	      0.00000000	      0.00000000	      0.00000000	      0.00000000	      0.00000000	      0.00000000	      0.00000000	      0.00000000	      0.00000000
     22.50400000	   -172.36581458	   1711.50352005	    -29.97091107	      2.12007402	      0.00000000	      1.06763320	     -0.00000000	      7.93110894	      0.00000000	      0.00000000	      0.00000000	      0.00000000	      0.00000000	      0.00000000	      0.00000000	      0.00000000	      0.00000000	      0.00000000
     22.50500000	   -170.01812947	   1721.01101748	    -30.07689559	      2.11805257	      0.00000000	      1.06766549	     -0.00000000	      7.96666816	      0.00000000	      0.00000000	      0.00000000	      0.00000000	      0.00000000	      0.00000000	      0.00000000	      0.00000000	      0.00000000	      0.00000000
     22.50600000	   -167.67044436	   1730.51851492	    -30.18288011	      2.11603113	      0.00000000	      1.06769777	     -0.00000000	      8.00222739	      0.00000000	      0.00000000	      0.00000000	      0.00000000	      0.00000000	      0.00000000	      0.00000000	      0.00000000	      0.00000000	      0.00000000
     22.50700000	   -165.20741194	   1739.78175907	    -30.30343171	      2.11400707	      0.00000000	      1.06773291	     -0.00000000	      8.03492235	      0.00000000	      0.00000000	      0.00000000	      0.00000000	      0.00000000	      0.00000000	      0.00000000	      0.00000000	      0.00000000	      0.00000000
     22.50800000	   -162.51368490	   1748.55649665	    -30.45311746	      2.11197780	      0.00000000	      1.06777374	     -0.00000000	      8.06188877	      0.00000000	      0.00000000	      0.00000000	      0.00000000	      0.00000000	      0.00000000	      0.00000000	      0.00000000	      0.00000000	      0.00000000
     22.50900000	   -159.81995785	   1757.33123424	    -30.60280321	      2.10994853	      0.00000000	      1.06781457	     -0.00000000	      8.08885519	      0.00000000	      0.00000000	      0.00000000	      0.00000000	      0.00000000	      0.00000000	      0.00000000	      0.00000000	      0.00000000	      0.00000000
     22.51000000	   -157.12623081	   1766.10597183	    -30.75248896	      2.10791926	      0.00000000	      1.06785540	     -0.00000000	      8.11582162	      0.00000000	      0.00000000	      0.00000000	      0.00000000	      0.00000000	      0.00000000	      0.00000000	      0.00000000	      0.00000000	      0.00000000
     22.51100000	   -154.13296718	   1774.03734787	    -30.94674222	      2.10588776	      0.00000000	      1.06790359	     -0.00000000	      8.13408145	      0.00000000	      0.00000000	      0.00000000	      0.00000000	      0.00000000	      0.00000000	      0.00000000	      0.00000000	      0.00000000	      0.00000000
     22.51200000	   -151.13970355	   1781.96872390	    -31.14099547	      2.10385625	      0.00000000	      1.06795177	     -0.00000000	      8.15234129	      0.00000000	      0.00000000	      0.00000000	      0.00000000	      0.00000000	      0.00000000	      0.00000000	      0.00000000	      0.00000000	      0.00000000
     22.51300000	   -148.14643992	   1789.90009994	    -31.33524873	      2.10182475	      0.00000000	      1.06799996	     -0.00000000	      8.17060113	      0.00000000	      0.00000000	      0.00000000	      0.00000000	      0.00000000	      0.00000000	      0.00000000	      0.00000000	      0.00000000	      0.00000000
     22.51400000	   -144.98476076	   1797.20176808	    -31.55962030	      2.09979487	      0.00000000	      1.06805227	     -0.00000000	      8.18295331	      0.00000000	      0.00000000	      0.00000000	      0.00000000	      0.00000000	      0.00000000	      0.00000000	      0.00000000	      0.00000000	      0.00000000
     22.51500000	   -141.73887383	   1804.18858227	    -31.79905103	      2.09776579	      0.00000000	      1.06810664	     -0.00000000	      8.19235168	      0.00000000	      0.00000000	      0.00000000	      0.00000000	      0.00000000	      0.00000000	      0.00000000	      0.00000000	      0.00000000	      0.00000000
     22.51600000	   -138.49298691	   1811.17539646	    -32.03848175	      2.09573671	      0.00000000	      1.06816100	     -0.00000000	      8.20175005	      0.00000000	      0.00000000	      0.00000000	      0.00000000	      0.00000000	      0.00000000	      0.00000000	      0.00000000	      0.00000000	      0.00000000
     22.51700000	   -135.17813691	   1817.81777560	    -32.29290454	      2.09370967	      0.00000000	      1.06821706	     -0.00000000	      8.20813863	      0.00000000	      0.00000000	      0.00000000	      0.00000000	      0.00000000	      0.00000000	      0.00000000	      0.00000000	      0.00000000	      0.00000000
     22.51800000	   -131.72536076	   1823.77128463	    -32.57731146	      2.09168672	      0.00000000	      1.06827647	     -0.00000000	      8.20850766	      0.00000000	      0.00000000	      0.00000000	      0.00000000	      0.00000000	      0.00000000	      0.00000000	      0.00000000	      0.00000000	      0.00000000
     22.51900000	   -128.27258462	   1829.72479365	    -32.86171838	      2.08966378	      0.00000000	      1.06833588	     -0.00000000	      8.20887669	      0.00000000	      0.00000000	      0.00000000	      0.00000000	      0.00000000	      0.00000000	      0.00000000	      0.00000000	      0.00000000	      0.00000000
     22.52000000	   -124.81980847	   1835.67830267	    -33.14612529	      2.08764083	      0.00000000	      1.06839529	     -0.00000000	      8.20924573	      0.00000000	      0.00000000	      0.00000000	      0.00000000	      0.00000000	      0.00000000	      0.00000000	      0.00000000	      0.00000000	      0.00000000
     22.52100000	   -121.20333709	   1840.52451529	    -33.47395490	      2.08562678	      0.00000000	      1.06845862	     -0.00000000	      8.20043963	      0.00000000	      0.00000000	      0.00000000	      0.00000000	      0.00000000	      0.00000000	      0.00000000	      0.00000000	      0.00000000	      0.00000000
     22.52200000	   -117.58686570	   1845.37072791	    -33.80178450	      2.08361274	      0.00000000	      1.06852195	     -0.00000000	      8.19163353	      0.00000000	      0.00000000	      0.00000000	      0.00000000	      0.00000000	      0.00000000	      0.00000000	      0.00000000	      0.00000000	      0.00000000
     22.52300000	   -113.97039432	   1850.21694053	    -34.12961410	      2.08159869	      0.00000000	      1.06858528	     -0.00000000	      8.18282743	      0.00000000	      0.00000000	      0.00000000	      0.00000000	      0.00000000	      0.00000000	      0.00000000	      0.00000000	      0.00000000	      0.00000000
     22.52400000	   -110.27116978	   1854.28646248	    -34.48413637	      2.07959181	      0.00000000	      1.06865046	     -0.00000000	      8.16784761	      0.00000000	      0.00000000	      0.00000000	      0.00000000	      0.00000000	      0.00000000	      0.00000000	      0.00000000	      0.00000000	      0.00000000
     22.52500000	   -106.53056867	   1857.96763911	    -34.85200495	      2.07758852	      0.00000000	      1.06871657	     -0.00000000	      8.14978093	     -0.00000000	      0.00000000	      0.00000000	      0.00000000	      0.00000000	      0.00000000	      0.00000000	      0.00000000	      0.00000000	      0.00000000
     22.52600000	   -102.78996755	   1861.64881573	    -35.21987354	      2.07558523	      0.00000000	      1.06878269	     -0.00000000	      8.13171425	     -0.00000000	      0.00000000	      0.00000000	      0.00000000	      0.00000000	      0.00000000	      0.00000000	      0.00000000	      0.00000000	      0.00000000
     22.52700000	    -99.01970743	   1864.92805265	    -35.59922548	      2.07358585	      0.00000000	      1.06884935	     -0.00000000	      8.11056495	     -0.00000000	      0.00000000	      0.00000000	      0.00000000	      0.00000000	      0.00000000	      0.00000000	      0.00000000	      0.00000000	      0.00000000
     22.52800000	    -95.19012930	   1867.40341015	    -36.00154410	      2.07159430	      0.00000000	      1.06891710	     -0.00000000	      8.08325039	     -0.00000000	      0.00000000	      0.00000000	      0.00000000	      0.00000000	      0.00000000	      0.00000000	      0.00000000	      0.00000000	      0.00000000
     22.52900000	    -91.36055117	   1869.87876765	    -36.40386273	      2.06960274	      0.00000000	      1.06898485	     -0.00000000	      8.05593583	     -0.00000000	      0.00000000	      0.00000000	      0.00000000	      0.00000000	      0.00000000	      0.00000000	      0.00000000	      0.00000000	      0.00000000
     22.53000000	    -87.53097303	   1872.35412515	    -36.80618135	      2.06761119	      0.00000000	      1.06905261	     -0.00000000	      8.02862128	     -0.00000000	      0.00000000	      0.00000000	      0.00000000	      0.00000000	      0.00000000	      0.00000000	      0.00000000	      0.00000000	      0.00000000
     22.53100000	    -83.64269276	   1873.59978420	    -37.23491383	      2.06563155	      0.00000000	      1.06912082	     -0.00000000	      7.99220353	     -0.00000000	      0.00000000	      0.00000000	      0.00000000	      0.00000000	      0.00000000	      0.00000000	      0.00000000	      0.00000000	      0.00000000
